<?xml version="1.0" encoding="UTF-8" standalone="no"?>
<!-- Created with Inkscape (http://www.inkscape.org/) -->

<svg
   xmlns:dc="http://purl.org/dc/elements/1.1/"
   xmlns:cc="http://creativecommons.org/ns#"
   xmlns:rdf="http://www.w3.org/1999/02/22-rdf-syntax-ns#"
   xmlns:svg="http://www.w3.org/2000/svg"
   xmlns="http://www.w3.org/2000/svg"
   xmlns:xlink="http://www.w3.org/1999/xlink"
   xmlns:sodipodi="http://sodipodi.sourceforge.net/DTD/sodipodi-0.dtd"
   xmlns:inkscape="http://www.inkscape.org/namespaces/inkscape"
   width="578.73553"
   height="346.0625"
   id="svg2"
   version="1.1"
   inkscape:version="0.48.2 r9819"
   sodipodi:docname="Hamburger.svg">
  <defs
     id="defs4" />
  <sodipodi:namedview
     id="base"
     pagecolor="#ffffff"
     bordercolor="#666666"
     borderopacity="1.0"
     inkscape:pageopacity="0.0"
     inkscape:pageshadow="2"
     inkscape:zoom="1.4131617"
     inkscape:cx="289.39307"
     inkscape:cy="175.15418"
     inkscape:document-units="px"
     inkscape:current-layer="layer1"
     showgrid="false"
     fit-margin-top="0"
     fit-margin-left="0"
     fit-margin-right="0"
     fit-margin-bottom="0"
     inkscape:window-width="1280"
     inkscape:window-height="744"
     inkscape:window-x="-4"
     inkscape:window-y="-4"
     inkscape:window-maximized="1"
     showguides="true"
     inkscape:guide-bbox="true" />
  <metadata
     id="metadata7">
    <rdf:RDF>
      <cc:Work
         rdf:about="">
        <dc:format>image/svg+xml</dc:format>
        <dc:type
           rdf:resource="http://purl.org/dc/dcmitype/StillImage" />
        <dc:title></dc:title>
      </cc:Work>
    </rdf:RDF>
  </metadata>
  <g
     inkscape:label="Layer 1"
     inkscape:groupmode="layer"
     id="layer1"
     transform="translate(-31.79572,-272.34375)">
    <path
       style="fill:#ffeeaa;fill-opacity:1;fill-rule:nonzero;stroke:#d3bc5f;stroke-width:10;stroke-linecap:butt;stroke-linejoin:round;stroke-miterlimit:4;stroke-opacity:1;stroke-dashoffset:0"
       d="m 285.66914,277.35867 71.51887,0 c 9.7664,0 196.44591,0.13737 237.09771,52.94981 19.5571,25.40744 1.84804,84.22448 -29.09771,84.91082 -30.94574,0.68634 -440.69753,7.6192 -487.51887,0 -46.821336,-7.61921 -48.654805,-59.50338 -29.09771,-84.91082 40.651804,-52.81244 227.33131,-52.94981 237.09771,-52.94981 z"
       id="rect2985"
       inkscape:connector-curvature="0"
       sodipodi:nodetypes="ssazzas" />
    <g
       id="g3100"
       transform="translate(-4.0875408,-0.74277554)">
      <path
         d="m 118.24445,499.05415 c -2.76478,-0.0158 -5.05101,-0.93466 -6.85872,-2.75639 -1.8078,-1.82174 -2.71656,-4.23187 -2.72631,-7.23038 l 0.1241,-15.46064 -20.466802,-0.17605 -0.124092,15.46064 c -0.01728,0.57467 -0.0556,1.08852 -0.114978,1.54159 -0.386231,2.94661 -1.654344,5.14352 -3.804341,6.59077 -2.15004,1.44722 -4.528025,2.00007 -7.133961,1.65852 -2.32237,-0.30439 -4.240653,-1.2761 -5.754855,-2.91513 -1.662972,-1.83268 -2.481922,-4.15979 -2.456852,-6.98136 l 0.332701,-48.71679 c 0.0098,-0.51754 0.04813,-1.03141 0.114978,-1.54159 0.378721,-2.88949 1.707093,-5.10665 3.985119,-6.65151 2.020286,-1.34985 4.334273,-1.8539 6.941967,-1.51219 2.322341,0.30445 4.240624,1.27616 5.754852,2.91514 1.72576,1.78291 2.573243,4.11377 2.54245,6.99258 l -0.142383,14.93582 20.466797,0.17606 0.14272,-14.93842 c 0.017,-0.57289 0.0554,-1.08676 0.11499,-1.5416 0.38594,-2.94483 1.65356,-5.14137 3.80287,-6.58965 2.14923,-1.44815 4.52771,-2.00136 7.13544,-1.65965 2.32229,0.30446 4.24047,1.27703 5.75452,2.91774 1.66313,1.83098 2.48218,4.15724 2.45718,6.97875 l -0.33271,48.7168 c -0.01,0.5176 -0.0481,1.03147 -0.11499,1.54158 -0.33413,2.54888 -1.39203,4.57108 -3.17365,6.0666 -1.78177,1.49551 -3.9371,2.22176 -6.46604,2.17876 z"
         style="font-size:70px;font-style:normal;font-variant:normal;font-weight:900;font-stretch:normal;text-align:start;line-height:125%;letter-spacing:0px;word-spacing:0px;writing-mode:lr-tb;text-anchor:start;fill:#554400;fill-opacity:1;stroke:none;font-family:'Porky\'s';-inkscape-font-specification:'Porky\'s Heavy'"
         id="path3016"
         inkscape:connector-curvature="0" />
      <path
         d="m 178.43766,498.41605 c -3.55489,0.0514 -6.23277,-1.24419 -8.03364,-3.88692 -0.80648,-1.24444 -1.88031,-4.09887 -3.22145,-8.5633 l -19.18385,0.18152 c -1.30216,4.42947 -2.35508,7.25604 -3.15879,8.47967 -1.69683,2.68702 -4.29411,4.05266 -7.79183,4.09696 -2.58078,0.0152 -4.82917,-0.84776 -6.74519,-2.58877 -1.916,-1.74101 -2.88439,-3.93141 -2.90516,-6.57122 0.005,-1.14793 0.25357,-2.46259 0.74554,-3.94399 l 16.9236,-46.72565 c 2.04856,-5.64763 5.7753,-8.72766 11.18022,-9.2401 2.73106,-0.25886 5.28697,0.35988 7.66772,1.85618 2.50982,1.65762 4.34551,4.0667 5.50706,7.2272 l 17.1511,46.50941 c 0.61294,1.60615 0.91876,3.01192 0.91747,4.21729 0.0207,2.63982 -0.86592,4.79061 -2.65988,6.45237 -1.79406,1.66176 -3.92502,2.49487 -6.39292,2.49935 z m -21.25153,-42.50226 c -0.89253,3.29927 -2.06414,7.2854 -3.51486,11.95841 l 7.47896,-0.10728 z"
         style="font-size:70px;font-style:normal;font-variant:normal;font-weight:900;font-stretch:normal;text-align:start;line-height:125%;letter-spacing:0px;word-spacing:0px;writing-mode:lr-tb;text-anchor:start;fill:#554400;fill-opacity:1;stroke:none;font-family:'Porky\'s';-inkscape-font-specification:'Porky\'s Heavy'"
         id="path3018"
         inkscape:connector-curvature="0" />
      <path
         d="m 256.36023,496.79969 c -1.81336,0.095 -3.38605,-0.11524 -4.71808,-0.63067 -2.93267,-1.13476 -4.76596,-3.68236 -5.4999,-7.64284 l -4.10537,-20.98262 c -1.30862,6.23325 -3.01079,13.87755 -5.10646,22.93289 -0.13199,0.50061 -0.29093,0.99077 -0.47647,1.47063 -1.52625,3.94425 -4.54798,6.05318 -9.06518,6.32679 -1.74053,0.0615 -3.30365,-0.17592 -4.68938,-0.71213 -2.71795,-1.05167 -4.59314,-3.0947 -5.6256,-6.12907 l -7.62107,-22.34296 c -0.33708,5.93595 -0.88321,13.04767 -1.63833,21.33516 -0.12222,1.42255 -0.38977,2.66732 -0.8026,3.73432 -1.33993,3.4628 -4.22122,5.28854 -8.64387,5.4772 -1.45361,0.11266 -2.81961,-0.0784 -4.09804,-0.57306 -3.62548,-1.40287 -5.557,-4.17268 -5.79453,-8.30946 -0.31043,-6.79987 0.2954,-15.17504 1.81748,-25.12559 1.26473,-8.3334 2.52897,-16.66793 3.79274,-25.00364 0.12945,-0.8082 0.33832,-1.58478 0.62658,-2.32977 0.78417,-2.02658 2.11516,-3.76401 3.993,-5.2123 1.87779,-1.4482 4.05814,-2.21275 6.54106,-2.29366 1.70592,-0.1365 3.35831,0.10458 4.9572,0.72319 3.57176,1.38211 5.92803,3.76462 7.06881,7.14753 l 8.56828,24.17932 c 1.22609,-6.02015 3.12223,-14.32523 5.68842,-24.91528 0.11119,-0.44687 0.25962,-0.91022 0.44531,-1.39011 0.7835,-2.02495 2.15141,-3.77802 4.10372,-5.2592 1.95219,-1.4811 4.16978,-2.26212 6.65274,-2.34304 1.68509,-0.0828 3.30109,0.17502 4.84796,0.77348 3.94421,1.52625 6.32457,4.16306 7.14108,7.91044 2.10878,8.16898 4.22801,16.31109 6.3577,24.42634 2.46574,9.7788 3.88071,18.0785 4.24488,24.89914 0.0595,1.43117 -0.15835,2.78679 -0.65357,4.06687 -1.4023,3.62384 -4.17179,5.55452 -8.30851,5.7921 z"
         style="font-size:70px;font-style:normal;font-variant:normal;font-weight:900;font-stretch:normal;text-align:start;line-height:125%;letter-spacing:0px;word-spacing:0px;writing-mode:lr-tb;text-anchor:start;fill:#554400;fill-opacity:1;stroke:none;font-family:'Porky\'s';-inkscape-font-specification:'Porky\'s Heavy'"
         id="path3020"
         inkscape:connector-curvature="0" />
      <path
         d="m 293.03908,498.49732 -17.70037,-0.24289 c -0.46226,-0.005 -0.94742,-0.0415 -1.45549,-0.11071 -2.43496,-0.33087 -4.45686,-1.3699 -6.06573,-3.11712 -1.60888,-1.74722 -2.40576,-3.94598 -2.3906,-6.59632 l 0.56786,-48.10943 c 0.005,-0.46048 0.0375,-0.91713 0.099,-1.36995 0.35411,-2.60599 1.47782,-4.61639 3.37114,-6.03122 1.89334,-1.41472 4.1091,-2.12303 6.64736,-2.12493 l 16.48988,0.25266 c 0.92099,0.009 1.83429,0.0749 2.73988,0.19804 4.7005,0.63876 8.5895,2.58052 11.66696,5.82526 3.16671,3.42946 4.73503,7.59299 4.70497,12.49057 -0.0185,0.97789 -0.0855,1.89107 -0.20063,2.73955 -0.51571,3.79503 -2.06251,6.90165 -4.64039,9.3199 4.94416,1.82466 8.00246,5.84481 9.17497,12.06042 1.17435,6.21414 -0.0964,11.75108 -3.81206,16.6108 -4.27788,5.58946 -10.6768,8.32456 -19.19678,8.2053 z m -4.31609,-49.72349 -3.54134,-0.0508 -0.0895,6.39002 3.5417,0.0482 c 2.4732,0.0492 3.72591,-1.10677 3.75812,-3.46795 0.0353,-1.95586 -1.18786,-2.92902 -3.66902,-2.91948 z m 2.07924,24.15934 -5.87901,-0.0226 -0.10323,7.77419 6.90972,0.073 c 3.22488,0.0351 4.85568,-1.35807 4.89238,-4.17975 0.0353,-1.9559 -1.33407,-3.12228 -4.10771,-3.49919 -0.50984,-0.0692 -1.08053,-0.1178 -1.7121,-0.14551 z"
         style="font-size:70px;font-style:normal;font-variant:normal;font-weight:900;font-stretch:normal;text-align:start;line-height:125%;letter-spacing:0px;word-spacing:0px;writing-mode:lr-tb;text-anchor:start;fill:#554400;fill-opacity:1;stroke:none;font-family:'Porky\'s';-inkscape-font-specification:'Porky\'s Heavy'"
         id="path3022"
         inkscape:connector-curvature="0" />
      <path
         d="m 374.83747,471.66917 c -0.10727,7.22491 -2.60025,13.44925 -7.47903,18.67305 -4.67547,5.02522 -10.52424,8.01867 -17.54636,8.98039 -1.52749,0.20918 -3.09982,0.3092 -4.71701,0.3001 -7.23269,-0.16423 -13.54138,-2.53082 -18.92607,-7.0998 -5.38471,-4.56898 -8.55779,-10.36368 -9.51927,-17.38413 -0.20941,-1.52915 -0.27715,-3.07773 -0.20321,-4.64575 l 0.65023,-30.63116 c 0.0252,-2.77234 0.87089,-5.02253 2.53712,-6.75055 1.4555,-1.58288 3.34439,-2.53335 5.66669,-2.85148 2.54691,-0.34873 4.91336,0.19237 7.09937,1.6233 2.18599,1.43106 3.47669,3.59021 3.87213,6.47746 0.0854,0.62383 0.11462,1.25443 0.0874,1.8918 l -0.66028,29.94071 c -0.004,0.80852 0.0448,1.5808 0.14566,2.31685 0.42642,3.1137 1.75848,5.46873 3.9962,7.06515 2.04342,1.45053 4.36797,1.99736 6.97367,1.6405 2.43455,-0.33341 4.45646,-1.3602 6.06571,-3.08039 1.74924,-1.96991 2.64483,-4.48569 2.68677,-7.54735 l 0.67165,-29.85778 c 0.0807,-2.77819 0.92173,-5.0559 2.52317,-6.83314 1.52005,-1.53537 3.41273,-2.45822 5.67804,-2.76852 2.60388,-0.35655 4.92074,0.13413 6.9506,1.47203 2.28685,1.53166 3.62423,3.71347 4.01213,6.54542 0.0851,0.6221 0.1172,1.28047 0.0963,1.97508 z"
         style="font-size:70px;font-style:normal;font-variant:normal;font-weight:900;font-stretch:normal;text-align:start;line-height:125%;letter-spacing:0px;word-spacing:0px;writing-mode:lr-tb;text-anchor:start;fill:#554400;fill-opacity:1;stroke:none;font-family:'Porky\'s';-inkscape-font-specification:'Porky\'s Heavy'"
         id="path3024"
         inkscape:connector-curvature="0" />
      <path
         d="m 412.53817,471.86981 10.48425,11.9996 c 1.39878,1.6453 2.15198,3.52345 2.25962,5.63445 0.13374,2.62484 -0.76272,4.95948 -2.68938,7.00392 -1.92678,2.04445 -4.32332,3.02533 -7.18965,2.94267 -3.09578,-0.1286 -5.53353,-1.3778 -7.31325,-3.7476 l -13.23673,-17.17933 c -0.005,3.26232 -0.0312,6.66804 -0.0791,10.21717 0.0305,2.86061 -0.88072,5.19643 -2.73375,7.00749 -1.69399,1.57417 -3.7968,2.42527 -6.30841,2.55328 -2.79554,0.1425 -5.18127,-0.65183 -7.15724,-2.38296 -2.15711,-1.89303 -3.17718,-4.5015 -3.06021,-7.82542 l 1.74965,-48.1557 c 0.13438,-2.98244 1.10123,-5.34949 2.90055,-7.10111 1.79933,-1.75148 4.219,-2.56154 7.259,-2.43016 l 15.13261,0.51743 c 7.05122,0.26933 12.6059,2.04594 16.66405,5.32986 4.35828,3.55512 6.70469,8.61412 7.03925,15.17703 0.0494,0.97021 0.0423,1.94325 -0.0214,2.91913 -0.29983,8.71358 -4.86643,14.55365 -13.69982,17.52025 z m -10.6847,-22.7159 -5.59102,-0.22843 -0.32568,8.77073 5.59115,0.23104 c 3.15318,0.12571 4.79698,-1.30272 4.93138,-4.28528 0.0827,-2.86632 -1.45265,-4.36234 -4.60583,-4.48806 z"
         style="font-size:70px;font-style:normal;font-variant:normal;font-weight:900;font-stretch:normal;text-align:start;line-height:125%;letter-spacing:0px;word-spacing:0px;writing-mode:lr-tb;text-anchor:start;fill:#554400;fill-opacity:1;stroke:none;font-family:'Porky\'s';-inkscape-font-specification:'Porky\'s Heavy'"
         id="path3026"
         inkscape:connector-curvature="0" />
      <path
         d="m 458.66727,499.22636 c -4.8103,-0.0658 -9.26773,-1.0394 -13.3723,-2.92084 -5.9215,-2.71428 -10.57832,-6.9549 -13.97051,-12.72187 -3.39218,-5.76699 -5.06954,-12.25733 -5.03208,-19.47103 0.0645,-5.62805 1.20404,-10.85745 3.41834,-15.68819 2.64302,-5.76607 6.51721,-10.30885 11.62256,-13.62833 5.3044,-3.47754 11.33356,-5.17733 18.08745,-5.09939 5.93367,0.0801 11.42053,1.27516 16.46057,3.58534 6.80607,3.11981 10.18884,7.12225 10.14831,12.00731 -0.0229,1.56082 -0.33192,2.99043 -0.92704,4.28885 -1.04798,2.28617 -2.76862,3.77666 -5.16192,4.47146 -2.39341,0.69485 -4.79886,0.45655 -7.21635,-0.71493 -0.70375,-0.3859 -1.75528,-1.04051 -3.15452,-1.96397 -1.39937,-0.9234 -2.5144,-1.57551 -3.3451,-1.95634 -2.02619,-0.9287 -4.35682,-1.40034 -6.99189,-1.41494 -5.24455,-0.0768 -9.02157,2.404 -11.33101,7.4424 -1.16714,2.54618 -1.7704,5.50713 -1.8098,8.88289 -0.0863,8.00667 2.46822,13.20072 7.66362,15.58216 2.7538,1.26229 5.73414,1.48114 8.94099,0.65653 3.20678,-0.8246 5.42935,-2.58766 6.66771,-5.2892 0.19035,-0.41536 0.35462,-0.84272 0.49271,-1.2821 l -5.06714,-0.0578 c -1.50777,-4.5e-4 -2.8847,-0.28626 -4.13079,-0.85747 -2.28619,-1.04791 -3.80371,-2.81211 -4.55256,-5.29262 -0.74895,-2.48048 -0.61142,-4.83764 0.41255,-7.07149 1.57183,-3.4292 4.37942,-5.09678 8.42277,-5.00273 l 14.57901,0.0811 c 2.04731,0.0579 3.7979,0.42003 5.25179,1.08639 3.63683,1.6671 5.43047,5.16126 5.38092,10.48251 -0.0497,5.32127 -1.08647,10.18956 -3.11029,14.6049 -2.4767,5.40304 -6.13257,9.6056 -10.96765,12.60763 -5.03113,3.16162 -10.8339,4.71289 -17.40836,4.65381 z"
         style="font-size:70px;font-style:normal;font-variant:normal;font-weight:900;font-stretch:normal;text-align:start;line-height:125%;letter-spacing:0px;word-spacing:0px;writing-mode:lr-tb;text-anchor:start;fill:#554400;fill-opacity:1;stroke:none;font-family:'Porky\'s';-inkscape-font-specification:'Porky\'s Heavy'"
         id="path3028"
         inkscape:connector-curvature="0" />
      <path
         d="m 521.79153,449.2398 -11.87032,-0.10531 -0.0219,6.10373 10.82582,0.12254 c 2.55602,-6.8e-4 4.66769,0.74688 6.33502,2.24268 1.51171,1.29373 2.45698,2.98125 2.83576,5.06252 0.43994,2.41766 0.0317,4.64042 -1.22478,6.66829 -1.33855,2.22014 -3.329,3.57063 -5.97137,4.05146 -0.73098,0.13305 -1.47223,0.20942 -2.22375,0.2292 l -10.82535,-0.12001 -0.11548,6.55416 c 2.72419,-0.0313 5.41508,-0.0849 8.07269,-0.16083 3.67621,0.0862 6.54914,0.55071 8.61882,1.39364 2.82747,1.1695 4.49712,3.16037 5.00893,5.97262 0.47053,2.58578 0.0313,4.95998 -1.31761,7.12259 -1.349,2.16264 -3.31723,3.47938 -5.90469,3.95025 -0.61774,0.11242 -1.30751,0.15018 -2.06935,0.1134 l -22.08823,-0.24805 c -2.38821,-0.0316 -4.46674,-0.75772 -6.23558,-2.17836 -1.76884,-1.42063 -2.85778,-3.25482 -3.26683,-5.50257 -0.12302,-0.67603 -0.18926,-1.36153 -0.19874,-2.05647 l 0.56628,-47.15135 c 0.0558,-2.56629 0.7342,-4.8249 2.03483,-6.77582 1.30065,-1.95079 3.21641,-3.15651 5.74727,-3.61715 0.73095,-0.13295 1.47735,-0.18109 2.23922,-0.14424 l 21.29853,0.21891 c 2.5097,0.0662 4.59236,0.82 6.24799,2.26118 1.45821,1.30172 2.37155,2.9649 2.74005,4.98953 0.45022,2.47429 0.0464,4.7264 -1.21144,6.75627 -1.27193,2.26477 -3.22908,3.63755 -5.87144,4.11836 -0.67608,0.12309 -1.39417,0.16596 -2.15428,0.12881 z"
         style="font-size:70px;font-style:normal;font-variant:normal;font-weight:900;font-stretch:normal;text-align:start;line-height:125%;letter-spacing:0px;word-spacing:0px;writing-mode:lr-tb;text-anchor:start;fill:#554400;fill-opacity:1;stroke:none;font-family:'Porky\'s';-inkscape-font-specification:'Porky\'s Heavy'"
         id="path3030"
         inkscape:connector-curvature="0" />
      <path
         d="m 568.15477,471.6602 10.69255,11.81435 c 1.42735,1.62059 2.21328,3.48527 2.35784,5.59408 0.17963,2.62209 -0.67585,4.97205 -2.56646,7.04988 -1.89072,2.07784 -4.26973,3.10049 -7.13708,3.06799 -3.09755,-0.0745 -5.55677,-1.2808 -7.37768,-3.61911 l -13.53521,-16.94515 c 0.0522,3.26192 0.0854,6.66757 0.0997,10.21701 0.0806,2.85963 -0.78967,5.21103 -2.61074,7.05423 -1.6662,1.60356 -3.7538,2.49132 -6.26277,2.66325 -2.79263,0.19137 -5.1919,-0.5611 -7.19785,-2.2574 -2.18989,-1.85501 -3.25543,-4.44525 -3.19662,-7.77069 l 0.907,-48.17893 c 0.0822,-2.98435 1.00747,-5.36794 2.77588,-7.15077 1.76842,-1.78269 4.17354,-2.63496 7.21538,-2.55678 l 15.13935,0.25264 c 7.05485,0.14593 12.63975,1.82512 16.75474,5.03755 4.41979,3.47833 6.85434,8.49551 7.30367,15.05156 0.0664,0.96919 0.0763,1.94221 0.0296,2.91907 -0.14735,8.71747 -4.6111,14.63654 -13.39124,17.75722 z m -11.08044,-22.52553 -5.59416,-0.13059 -0.17221,8.77508 5.59434,0.13321 c 3.15491,0.0705 4.77345,-1.38643 4.85566,-4.37088 0.0324,-2.86735 -1.52872,-4.33627 -4.68363,-4.40682 z"
         style="font-size:70px;font-style:normal;font-variant:normal;font-weight:900;font-stretch:normal;text-align:start;line-height:125%;letter-spacing:0px;word-spacing:0px;writing-mode:lr-tb;text-anchor:start;fill:#554400;fill-opacity:1;stroke:none;font-family:'Porky\'s';-inkscape-font-specification:'Porky\'s Heavy'"
         id="path3032"
         inkscape:connector-curvature="0" />
    </g>
    <rect
       style="fill:#ffeeaa;fill-opacity:1;fill-rule:nonzero;stroke:#d3bc5f;stroke-width:10;stroke-linecap:butt;stroke-linejoin:round;stroke-miterlimit:4;stroke-opacity:1;stroke-dasharray:none;stroke-dashoffset:0"
       id="rect3077"
       width="567.99182"
       height="105.05621"
       x="37.548473"
       y="508.33505"
       ry="46.817719"
       rx="48.826683" />
    <path
       sodipodi:nodetypes="ssazzas"
       inkscape:connector-curvature="0"
       id="path3111"
       d="m 286.99817,277.35867 71.88434,0 c 9.81631,0 197.44977,0.13737 238.30931,52.94981 19.65703,25.40744 1.85748,84.22448 -29.24641,84.91082 -31.10387,0.68634 -442.94953,7.6192 -490.01014,0 C 30.874672,407.60009 29.031834,355.71592 48.688868,330.30848 89.548406,277.49604 277.18187,277.35867 286.99817,277.35867 z"
       style="fill:#e2aa4d;fill-opacity:1;fill-rule:nonzero;stroke:#a0892c;stroke-width:10;stroke-linecap:butt;stroke-linejoin:round;stroke-miterlimit:4;stroke-opacity:1;stroke-dashoffset:0" />
    <rect
       rx="48.826683"
       ry="46.817719"
       y="508.33505"
       x="37.167576"
       height="105.05621"
       width="567.99182"
       id="rect3133"
       style="fill:#e2aa4d;fill-opacity:1;fill-rule:nonzero;stroke:#a0892c;stroke-width:10;stroke-linecap:butt;stroke-linejoin:round;stroke-miterlimit:4;stroke-opacity:1;stroke-dasharray:none;stroke-dashoffset:0" />
    <path
       sodipodi:type="arc"
       style="fill:#f8d49a;fill-opacity:1;fill-rule:nonzero;stroke:none"
       id="path3146"
       sodipodi:cx="647.48431"
       sodipodi:cy="300.77399"
       sodipodi:rx="4.2457986"
       sodipodi:ry="2.1228993"
       d="m 651.73011,300.77399 a 4.2457986,2.1228993 0 1 1 -8.49159,0 4.2457986,2.1228993 0 1 1 8.49159,0 z"
       transform="matrix(2.0833333,0,0,2.1666667,-1066.9816,-292.61825)" />
    <use
       id="use3276"
       xlink:href="#path3146"
       transform="matrix(0.89141373,-0.64991189,0.64991189,0.89141373,-403.17404,206.09808)"
       x="0"
       y="0"
       width="578.73553"
       height="346.0625" />
    <use
       id="use3278"
       xlink:href="#path3146"
       transform="matrix(1.0880756,0.07051666,-0.07051666,1.0880756,120.63479,-57.279051)"
       x="0"
       y="0"
       width="578.73553"
       height="346.0625" />
    <use
       id="use3280"
       xlink:href="#path3146"
       transform="matrix(0.98465495,-0.07316873,0.07316873,0.98465495,-248.5579,21.094769)"
       x="0"
       y="0"
       width="578.73553"
       height="346.0625" />
    <use
       id="use3282"
       xlink:href="#path3146"
       transform="matrix(0.89432947,-0.61773894,0.61773894,0.89432947,-375.05291,224.55338)"
       x="0"
       y="0"
       width="578.73553"
       height="346.0625" />
    <use
       id="use3284"
       xlink:href="#path3146"
       transform="matrix(1.0072575,-0.32106682,0.32106682,1.0072575,84.847557,89.996375)"
       x="0"
       y="0"
       width="578.73553"
       height="346.0625" />
    <use
       id="use3286"
       xlink:href="#path3146"
       transform="matrix(0.81019745,-0.68134871,0.68134871,0.81019745,-401.77236,263.11746)"
       x="0"
       y="0"
       width="578.73553"
       height="346.0625" />
    <use
       id="use3288"
       xlink:href="#path3146"
       transform="matrix(1.114725,-0.05153998,0.05153998,1.114725,-96.78582,-37.117092)"
       x="0"
       y="0"
       width="578.73553"
       height="346.0625" />
    <use
       id="use3290"
       xlink:href="#path3146"
       transform="matrix(0.73722427,0.4526412,-0.4526412,0.73722427,273.88346,-101.08751)"
       x="0"
       y="0"
       width="578.73553"
       height="346.0625" />
    <use
       id="use3292"
       xlink:href="#path3146"
       transform="matrix(0.99277817,-0.15332515,0.15332515,0.99277817,-258.06104,15.280368)"
       x="0"
       y="0"
       width="578.73553"
       height="346.0625" />
    <use
       id="use3294"
       xlink:href="#path3146"
       transform="matrix(0.94996287,0.44149249,-0.44149249,0.94996287,0.17799925,-127.99227)"
       x="0"
       y="0"
       width="578.73553"
       height="346.0625" />
    <use
       id="use3296"
       xlink:href="#path3146"
       transform="matrix(0.81931733,-0.4701322,0.4701322,0.81931733,27.613232,161.2626)"
       x="0"
       y="0"
       width="578.73553"
       height="346.0625" />
    <use
       id="use3298"
       xlink:href="#path3146"
       transform="matrix(0.98293185,0.55597129,-0.55597129,0.98293185,287.25918,-178.69586)"
       x="0"
       y="0"
       width="578.73553"
       height="346.0625" />
    <use
       id="use3300"
       xlink:href="#path3146"
       transform="matrix(0.69278628,-0.57731199,0.57731199,0.69278628,-300.47539,231.12777)"
       x="0"
       y="0"
       width="578.73553"
       height="346.0625" />
    <use
       id="use3302"
       xlink:href="#path3146"
       transform="matrix(0.97542932,0.15117831,-0.15117831,0.97542932,-84.756495,-89.388636)"
       x="0"
       y="0"
       width="578.73553"
       height="346.0625" />
    <use
       id="use3304"
       xlink:href="#path3146"
       transform="matrix(1.0176331,-0.0092132,0.0092132,1.0176331,-150.02719,-19.732508)"
       x="0"
       y="0"
       width="578.73553"
       height="346.0625" />
    <use
       id="use3306"
       xlink:href="#path3146"
       transform="matrix(0.78152869,-0.73034588,0.73034588,0.78152869,-313.49924,233.42893)"
       x="0"
       y="0"
       width="578.73553"
       height="346.0625" />
    <use
       id="use3308"
       xlink:href="#path3146"
       transform="matrix(0.94829889,0.16328235,-0.16328235,0.94829889,-72.106338,-25.192999)"
       x="0"
       y="0"
       width="578.73553"
       height="346.0625" />
    <use
       id="use3310"
       xlink:href="#path3146"
       transform="matrix(0.81275856,0.54837503,-0.54837503,0.81275856,117.83162,-119.68419)"
       x="0"
       y="0"
       width="578.73553"
       height="346.0625" />
    <use
       id="use3312"
       xlink:href="#path3146"
       transform="matrix(0.68917481,0.54515733,-0.54515733,0.68917481,209.23462,-103.16464)"
       x="0"
       y="0"
       width="578.73553"
       height="346.0625" />
    <use
       id="use3314"
       xlink:href="#path3146"
       transform="matrix(0.93327257,-0.11406582,0.11406582,0.93327257,-108.44605,15.988742)"
       x="0"
       y="0"
       width="578.73553"
       height="346.0625" />
    <use
       id="use3316"
       xlink:href="#path3146"
       transform="matrix(0.73159457,0.5000885,-0.5000885,0.73159457,201.92689,-85.080855)"
       x="0"
       y="0"
       width="578.73553"
       height="346.0625" />
    <use
       id="use3318"
       xlink:href="#path3146"
       transform="matrix(0.86927775,0.24819794,-0.24819794,0.86927775,112.3108,-54.765631)"
       x="0"
       y="0"
       width="578.73553"
       height="346.0625" />
    <use
       id="use3320"
       xlink:href="#path3146"
       transform="matrix(0.98555303,-0.22902839,0.22902839,0.98555303,-105.79768,8.56958)"
       x="0"
       y="0"
       width="578.73553"
       height="346.0625" />
    <use
       id="use3322"
       xlink:href="#path3146"
       transform="matrix(0.90507121,-0.61916631,0.61916631,0.90507121,-283.51903,199.78404)"
       x="0"
       y="0"
       width="578.73553"
       height="346.0625" />
    <use
       id="use3324"
       xlink:href="#path3146"
       transform="matrix(0.82437838,0.48684862,-0.48684862,0.82437838,232.90471,-136.64088)"
       x="0"
       y="0"
       width="578.73553"
       height="346.0625" />
    <use
       id="use3326"
       xlink:href="#path3146"
       transform="matrix(0.72070878,-0.65833101,0.65833101,0.72070878,-104.62816,237.63501)"
       x="0"
       y="0"
       width="578.73553"
       height="346.0625" />
    <use
       id="use3328"
       xlink:href="#path3146"
       transform="matrix(0.84134546,0.74308331,-0.74308331,0.84134546,389.38785,-212.08042)"
       x="0"
       y="0"
       width="578.73553"
       height="346.0625" />
    <use
       id="use3330"
       xlink:href="#path3146"
       transform="matrix(1.050295,-0.29443041,0.29443041,1.050295,-11.179184,8.4007195)"
       x="0"
       y="0"
       width="578.73553"
       height="346.0625" />
    <use
       id="use3332"
       xlink:href="#path3146"
       transform="matrix(0.9175288,-0.01123551,0.01123551,0.9175288,163.31927,-28.026064)"
       x="0"
       y="0"
       width="578.73553"
       height="346.0625" />
    <use
       id="use3334"
       xlink:href="#path3146"
       transform="matrix(0.94354681,0.15190639,-0.15190639,0.94354681,256.31134,-42.726908)"
       x="0"
       y="0"
       width="578.73553"
       height="346.0625" />
    <use
       id="use3336"
       xlink:href="#path3146"
       transform="matrix(0.88761181,0.52443773,-0.52443773,0.88761181,395.4752,-152.51077)"
       x="0"
       y="0"
       width="578.73553"
       height="346.0625" />
    <use
       id="use3338"
       xlink:href="#path3146"
       transform="matrix(0.67895402,-0.57796623,0.57796623,0.67895402,81.833401,225.54294)"
       x="0"
       y="0"
       width="578.73553"
       height="346.0625" />
    <use
       id="use3340"
       xlink:href="#path3146"
       transform="matrix(0.80794179,0.69772751,-0.69772751,0.80794179,333.85405,-148.08256)"
       x="0"
       y="0"
       width="578.73553"
       height="346.0625" />
    <use
       id="use3342"
       xlink:href="#path3146"
       transform="matrix(0.88033969,0.11170501,-0.11170501,0.88033969,297.47321,-29.246123)"
       x="0"
       y="0"
       width="578.73553"
       height="346.0625" />
    <use
       id="use3344"
       xlink:href="#path3146"
       transform="matrix(1.0039575,-0.21855758,0.21855758,1.0039575,166.38367,16.666577)"
       x="0"
       y="0"
       width="578.73553"
       height="346.0625" />
    <use
       id="use3346"
       xlink:href="#path3146"
       transform="matrix(1.0685474,-0.11330877,0.11330877,1.0685474,168.85926,-15.091759)"
       x="0"
       y="0"
       width="578.73553"
       height="346.0625" />
    <use
       id="use3348"
       xlink:href="#path3146"
       transform="matrix(0.81332246,0.4337322,-0.4337322,0.81332246,488.38704,-83.048896)"
       x="0"
       y="0"
       width="578.73553"
       height="346.0625" />
    <use
       id="use3350"
       xlink:href="#path3146"
       transform="matrix(0.70662727,-0.49947799,0.49947799,0.70662727,144.97423,252.22705)"
       x="0"
       y="0"
       width="578.73553"
       height="346.0625" />
    <use
       id="use3352"
       xlink:href="#path3146"
       transform="matrix(0.91222397,0.00588286,-0.00588286,0.91222397,312.78294,42.177763)"
       x="0"
       y="0"
       width="578.73553"
       height="346.0625" />
    <use
       id="use3354"
       xlink:href="#path3146"
       transform="matrix(1.0580414,-0.13269957,0.13269957,1.0580414,196.70787,-2.2214157)"
       x="0"
       y="0"
       width="578.73553"
       height="346.0625" />
    <use
       id="use3356"
       xlink:href="#path3146"
       transform="matrix(0.70977836,0.70084303,-0.70084303,0.70977836,634.72396,-106.02509)"
       x="0"
       y="0"
       width="578.73553"
       height="346.0625" />
  </g>
</svg>
